# xmcd CD database file
#
# Track frame offsets:
#	150
#	25824
#	40906
#	64831
#	82040
#	107700
#	123171
#	142047
#	162699
#	179822
#	209997
#	223308
#
# Disc length: 3265 seconds
#
# Revision: 0
# Processed by: cddbd v1.5.2PL0 Copyright (c) Steve Scherf et al.
# Submitted via: CDex 1.51
#
DISCID=c50cbf0c
DTITLE=Yaron Herman - Y
DYEAR=2017
DGENRE=Jazz
TTITLE0=First Dance
TTITLE1=Legs To Run
TTITLE2=Phoenix
TTITLE3=Feat.M_Saisons Contradictoires
TTITLE4=Jacob
TTITLE5=Silhouettes
TTITLE6=Feat.Dream Koala_Solaire
TTITLE7=Side Jump
TTITLE8=Feat.Hugh Coltman_The Waker
TTITLE9=Spark
TTITLE10=Fun Groys Dasad
TTITLE11=Dreamson
EXTD=YEAR: 2017
EXTT0=
EXTT1=
EXTT2=
EXTT3=
EXTT4=
EXTT5=
EXTT6=
EXTT7=
EXTT8=
EXTT9=
EXTT10=
EXTT11=
PLAYORDER=
